<svg width="253" height="186" viewBox="0 0 253 186" fill="none" xmlns="http://www.w3.org/2000/svg">
<g clip-path="url(#clip0_5764_4269)">
<path fill-rule="evenodd" clip-rule="evenodd" d="M218.528 115.721C193.92 139.171 165.516 143.075 137.101 146.98C108.678 150.887 80.2429 154.795 55.5827 178.27C52.0592 160.173 48.5444 142.1 45.0295 124.026L45.0272 124.014L45.0264 124.01C41.5111 105.934 37.9958 87.858 34.4718 69.7595C59.0801 46.3091 87.4835 42.4052 115.899 38.4997C144.322 34.5931 172.757 30.6849 197.417 7.21065L197.437 7.31195L197.437 7.31506C204.479 43.4804 211.521 79.6457 218.528 115.721ZM181.823 32.8051C177.936 43.2196 173.855 53.3976 169.711 62.8731L169.544 63.2486L169.314 62.9216L168.281 61.6471L168.275 61.6389C163.276 55.4702 158.127 49.1164 153.118 42.8904C145.981 44.7184 138.641 46.2243 131.422 47.7053C130.423 47.9102 129.427 48.1146 128.434 48.3192C131.966 52.5012 135.581 56.7207 139.177 60.9165L139.178 60.9184C141.78 63.9541 144.37 66.9774 146.911 69.9652C150.628 74.2443 154.255 78.5581 157.883 82.8719L157.883 82.872L158.043 83.0182L157.987 83.1433C152.716 93.4666 147.195 103.678 141.841 113.515C138.387 119.924 134.823 126.583 131.258 133.242L131.258 133.243C134.972 132.648 138.574 132.302 142.086 131.992C142.475 131.953 142.866 131.915 143.257 131.877C147.986 131.414 152.858 130.937 158.325 129.701C161.34 123.627 164.39 116.896 167.401 110.249L167.402 110.249C168.013 108.899 168.623 107.553 169.23 106.217L172.852 98.0833L173.019 97.7079L173.248 98.0349C174.569 99.6869 175.949 101.432 177.353 103.208L177.355 103.21L177.356 103.211C178.919 105.188 180.512 107.203 182.086 109.167C183.803 111.332 185.54 113.549 187.246 115.726L187.248 115.728C188.738 117.629 190.204 119.5 191.612 121.28C195.862 119.649 202.437 115.154 211.823 107.712C204.908 100.51 199.224 94.0811 193.151 87.1788C191.396 85.2 189.577 83.1615 187.683 81.0397L187.679 81.0354L187.646 80.9977C186.588 79.8128 185.507 78.602 184.402 77.361L184.242 77.2149L184.298 77.0897C191.06 61.7328 196.814 46.4517 201.929 30.586L200.265 22.1984C194.616 26.1306 188.522 29.7149 181.823 32.8051ZM61.0615 73.3512C66.1846 65.886 72.843 60.5288 81.0717 57.3701C82.2472 56.9189 83.4227 56.4676 84.7234 56.0721C92.6525 53.7547 100.26 53.8431 107.331 56.3164C114.151 58.6782 119.976 62.771 124.589 68.5737C118.383 73.7573 113.102 78.3782 108.273 82.8256C102.387 76.6814 95.7055 74.6812 88.3537 76.8808C81.7599 78.8932 76.9447 83.6466 74.0887 91.0715C71.2327 98.4965 70.9844 105.958 73.3301 113.15C75.0027 118.318 77.7265 121.63 81.6961 123.322C85.5406 124.959 89.8938 124.948 94.6306 123.233C100.724 120.998 105.587 116.641 109.424 109.877C115.784 112.934 122.055 116.026 128.61 119.32L128.861 119.431C123.179 130.846 113.897 138.559 99.6866 143.702C87.7369 147.978 78.529 149.126 70.4985 147.125C61.877 144.936 56.3106 139.084 52.9309 128.658C50.3632 120.617 49.5555 111.486 50.7025 101.501C51.8011 91.1195 55.3329 81.6714 61.0615 73.3512Z" fill="url(#paint0_linear_5764_4269)"/>
</g>
<defs>
<linearGradient id="paint0_linear_5764_4269" x1="126.396" y1="63.113" x2="298.136" y2="126.305" gradientUnits="userSpaceOnUse">
<stop stop-color="#996BFF"/>
<stop offset="1" stop-color="#996BFF" stop-opacity="0"/>
</linearGradient>
<clipPath id="clip0_5764_4269">
<rect width="251.275" height="185.155" fill="white" transform="translate(0.862305 0.16275)"/>
</clipPath>
</defs>
</svg>
